<svg width="960" height="639" xmlns="http://www.w3.org/2000/svg" xmlns:xlink="http://www.w3.org/1999/xlink" overflow="hidden"><defs><clipPath id="clip0"><rect x="0" y="0" width="960" height="639"/></clipPath><clipPath id="clip1"><rect x="-2" y="0" width="940" height="639"/></clipPath><clipPath id="clip2"><rect x="103" y="73" width="803" height="516"/></clipPath><clipPath id="clip3"><rect x="103" y="73" width="803" height="516"/></clipPath><clipPath id="clip4"><rect x="103" y="73" width="803" height="516"/></clipPath><clipPath id="clip5"><rect x="103" y="73" width="803" height="516"/></clipPath><clipPath id="clip6"><rect x="103" y="73" width="803" height="516"/></clipPath><clipPath id="clip7"><rect x="-2" y="0" width="940" height="639"/></clipPath><clipPath id="clip8"><rect x="-2" y="0" width="940" height="639"/></clipPath><clipPath id="clip9"><rect x="-2" y="0" width="940" height="639"/></clipPath><clipPath id="clip10"><rect x="-2" y="0" width="940" height="639"/></clipPath><clipPath id="clip11"><rect x="-2" y="0" width="940" height="639"/></clipPath><clipPath id="clip12"><rect x="-2" y="0" width="940" height="639"/></clipPath><clipPath id="clip13"><rect x="-2" y="0" width="940" height="639"/></clipPath><clipPath id="clip14"><rect x="-2" y="0" width="940" height="639"/></clipPath><clipPath id="clip15"><rect x="-2" y="0" width="940" height="639"/></clipPath><clipPath id="clip16"><rect x="-2" y="0" width="940" height="639"/></clipPath><clipPath id="clip17"><rect x="-2" y="0" width="940" height="639"/></clipPath><clipPath id="clip18"><rect x="-3" y="-1" width="942" height="640"/></clipPath><clipPath id="clip19"><rect x="-3" y="-1" width="942" height="640"/></clipPath><clipPath id="clip20"><rect x="-3" y="-1" width="942" height="640"/></clipPath><clipPath id="clip21"><rect x="-3" y="-1" width="942" height="640"/></clipPath><clipPath id="clip22"><rect x="-3" y="-1" width="942" height="640"/></clipPath><clipPath id="clip23"><rect x="-548" y="62" width="1422" height="88"/></clipPath><clipPath id="clip24"><rect x="-3" y="-1" width="942" height="640"/></clipPath><clipPath id="clip25"><rect x="-548" y="62" width="1422" height="88"/></clipPath><clipPath id="clip26"><rect x="-3" y="-1" width="942" height="640"/></clipPath><clipPath id="clip27"><rect x="-3" y="-1" width="942" height="640"/></clipPath><clipPath id="clip28"><rect x="-3" y="-1" width="942" height="640"/></clipPath><clipPath id="clip29"><rect x="-3" y="-1" width="942" height="640"/></clipPath><clipPath id="clip30"><rect x="-3" y="-1" width="942" height="640"/></clipPath><clipPath id="clip31"><rect x="-3" y="-1" width="942" height="640"/></clipPath><clipPath id="clip32"><rect x="-3" y="-1" width="942" height="640"/></clipPath><clipPath id="clip33"><rect x="-3" y="-1" width="942" height="640"/></clipPath><clipPath id="clip34"><rect x="-3" y="-1" width="942" height="640"/></clipPath></defs><g clip-path="url(#clip0)"><rect x="0" y="0" width="960" height="639.333" fill="#FFFFFF"/><g clip-path="url(#clip1)"><path d="M103.5 73.5384 103.5 588.807M183.5 73.5384 183.5 588.807M264.5 73.5384 264.5 588.807M344.5 73.5384 344.5 588.807M424.5 73.5384 424.5 588.807M504.5 73.5384 504.5 588.807M585.5 73.5384 585.5 588.807M665.5 73.5384 665.5 588.807M745.5 73.5384 745.5 588.807M825.5 73.5384 825.5 588.807M905.5 73.5384 905.5 588.807" stroke="#D9D9D9" stroke-linejoin="round" stroke-miterlimit="10" fill="none"/></g><g clip-path="url(#clip2)"><path d="M111 434.227 104 434.227 104 228.119 111 228.119Z" fill="#0082CA"/></g><g clip-path="url(#clip3)"><path d="M208 434.227 111 434.227 111 228.119 208 228.119Z" fill="#15B542"/></g><g clip-path="url(#clip4)"><path d="M270 434.227 208 434.227 208 228.119 270 228.119Z" fill="#FDBF27"/></g><g clip-path="url(#clip5)"><path d="M439 434.227 270 434.227 270 228.119 439 228.119Z" fill="#DE4900"/></g><g clip-path="url(#clip6)"><path d="M906 434.227 439 434.227 439 228.119 906 228.119Z" fill="#626262"/></g><g clip-path="url(#clip7)"><text fill="#595959" font-family="Arial,Arial_MSFontService,sans-serif" font-weight="400" font-size="16" transform="matrix(1 0 0 1.00052 92.2545 613)">0%</text></g><g clip-path="url(#clip8)"><text fill="#595959" font-family="Arial,Arial_MSFontService,sans-serif" font-weight="400" font-size="16" transform="matrix(1 0 0 1.00052 168.029 613)">10%</text></g><g clip-path="url(#clip9)"><text fill="#595959" font-family="Arial,Arial_MSFontService,sans-serif" font-weight="400" font-size="16" transform="matrix(1 0 0 1.00052 248.24 613)">20%</text></g><g clip-path="url(#clip10)"><text fill="#595959" font-family="Arial,Arial_MSFontService,sans-serif" font-weight="400" font-size="16" transform="matrix(1 0 0 1.00052 328.451 613)">30%</text></g><g clip-path="url(#clip11)"><text fill="#595959" font-family="Arial,Arial_MSFontService,sans-serif" font-weight="400" font-size="16" transform="matrix(1 0 0 1.00052 408.662 613)">40%</text></g><g clip-path="url(#clip12)"><text fill="#595959" font-family="Arial,Arial_MSFontService,sans-serif" font-weight="400" font-size="16" transform="matrix(1 0 0 1.00052 488.874 613)">50%</text></g><g clip-path="url(#clip13)"><text fill="#595959" font-family="Arial,Arial_MSFontService,sans-serif" font-weight="400" font-size="16" transform="matrix(1 0 0 1.00052 569.085 613)">60%</text></g><g clip-path="url(#clip14)"><text fill="#595959" font-family="Arial,Arial_MSFontService,sans-serif" font-weight="400" font-size="16" transform="matrix(1 0 0 1.00052 649.296 613)">70%</text></g><g clip-path="url(#clip15)"><text fill="#595959" font-family="Arial,Arial_MSFontService,sans-serif" font-weight="400" font-size="16" transform="matrix(1 0 0 1.00052 729.507 613)">80%</text></g><g clip-path="url(#clip16)"><text fill="#595959" font-family="Arial,Arial_MSFontService,sans-serif" font-weight="400" font-size="16" transform="matrix(1 0 0 1.00052 809.718 613)">90%</text></g><g clip-path="url(#clip17)"><text fill="#595959" font-family="Arial,Arial_MSFontService,sans-serif" font-weight="400" font-size="16" transform="matrix(1 0 0 1.00052 885.493 613)">100%</text></g><g clip-path="url(#clip18)"><path d="M108 222.116C108 218.248 108.522 215.112 109.167 215.112L155.833 215.112C156.478 215.112 157 211.977 157 208.109 157 211.977 157.522 215.112 158.167 215.112L204.833 215.112C205.478 215.112 206 218.248 206 222.116" stroke="#000000" stroke-width="1.66754" stroke-miterlimit="8" fill="none" fill-rule="evenodd"/></g><g clip-path="url(#clip19)"><path d="M211 222.116C211 217.971 211.56 214.612 212.25 214.612L557.25 214.612C557.94 214.612 558.5 211.253 558.5 207.108 558.5 211.253 559.06 214.612 559.75 214.612L904.75 214.612C905.44 214.612 906 217.972 906 222.117" stroke="#000000" stroke-width="1.66754" stroke-miterlimit="8" fill="none" fill-rule="evenodd"/></g><g clip-path="url(#clip20)"><rect x="86.5001" y="60.5316" width="824" height="87.0454" stroke="#FFFFFF" stroke-width="1.33333" stroke-miterlimit="8" fill="#FFFFFF"/></g><g clip-path="url(#clip21)"><rect x="51" y="62.0324" width="223" height="88.0459" fill="#FFFFFF"/></g><g clip-path="url(#clip22)"><g clip-path="url(#clip23)"><text font-family="Arial,Arial_MSFontService,sans-serif" font-weight="700" font-size="32" transform="matrix(1 0 0 1.00052 66.5433 98)">Major Roads</text></g></g><g clip-path="url(#clip24)"><g clip-path="url(#clip25)"><text font-family="Arial,Arial_MSFontService,sans-serif" font-weight="400" font-size="32" transform="matrix(1 0 0 1.00052 61.0433 137)">(31,900 miles)</text></g></g><g clip-path="url(#clip26)"><rect x="441" y="57.0298" width="242" height="62.0324" fill="#FFFFFF"/></g><g clip-path="url(#clip27)"><text font-family="Arial,Arial_MSFontService,sans-serif" font-weight="700" font-size="32" transform="matrix(1 0 0 1.00052 464.774 93)">Minor Roads</text></g><g clip-path="url(#clip28)"><text font-family="Arial,Arial_MSFontService,sans-serif" font-weight="400" font-size="32" transform="matrix(1 0 0 1.00052 451.194 132)">(213,200 miles)</text></g><g clip-path="url(#clip29)"><text font-family="Arial,Arial_MSFontService,sans-serif" font-weight="400" font-size="21" transform="matrix(1 0 0 1.00052 229.105 312)">‘B’</text></g><g clip-path="url(#clip30)"><text font-family="Arial,Arial_MSFontService,sans-serif" font-weight="400" font-size="21" transform="matrix(1 0 0 1.00052 209.705 337)">Roads</text></g><g clip-path="url(#clip31)"><text font-family="Arial,Arial_MSFontService,sans-serif" font-weight="400" font-size="21" transform="matrix(1 0 0 1.00052 225.039 363)">8%</text></g><g clip-path="url(#clip32)"><text fill="#FFFFFF" font-family="Arial,Arial_MSFontService,sans-serif" font-weight="400" font-size="21" transform="matrix(1 0 0 1.00052 339.253 312)">‘C’</text></g><g clip-path="url(#clip33)"><text fill="#FFFFFF" font-family="Arial,Arial_MSFontService,sans-serif" font-weight="400" font-size="21" transform="matrix(1 0 0 1.00052 320.44 337)">Roads</text></g><g clip-path="url(#clip34)"><text fill="#FFFFFF" font-family="Arial,Arial_MSFontService,sans-serif" font-weight="400" font-size="21" transform="matrix(1 0 0 1.00052 329.86 363)">21%</text></g><text font-family="Arial,Arial_MSFontService,sans-serif" font-weight="400" font-size="21" transform="matrix(1 0 0 1.00052 150.719 312)">‘A’</text><text font-family="Arial,Arial_MSFontService,sans-serif" font-weight="400" font-size="21" transform="matrix(1 0 0 1.00052 130.526 337)">Roads</text><text font-family="Arial,Arial_MSFontService,sans-serif" font-weight="400" font-size="21" transform="matrix(1 0 0 1.00052 139.946 363)">12%</text><text fill="#FFFFFF" font-family="Arial,Arial_MSFontService,sans-serif" font-weight="400" font-size="21" transform="matrix(1 0 0 1.00052 657.636 312)">‘U’</text><text fill="#FFFFFF" font-family="Arial,Arial_MSFontService,sans-serif" font-weight="400" font-size="21" transform="matrix(1 0 0 1.00052 638.822 337)">Roads</text><text fill="#FFFFFF" font-family="Arial,Arial_MSFontService,sans-serif" font-weight="400" font-size="21" transform="matrix(1 0 0 1.00052 648.242 363)">58%</text><text font-family="Arial,Arial_MSFontService,sans-serif" font-weight="400" font-size="21" transform="matrix(1 0 0 1.00052 -1.03911 325)">Motorways</text><text font-family="Arial,Arial_MSFontService,sans-serif" font-weight="400" font-size="21" transform="matrix(1 0 0 1.00052 35.1276 350)">1%</text><path d="M76.5001 340.678 107.795 340.678" stroke="#4472C4" stroke-width="0.666667" stroke-miterlimit="8" fill="none" fill-rule="evenodd"/></g></svg>